# xmcd CD database file
#
# Track frame offsets:
#	150
#	16722
#	31316
#	49494
#	65034
#	80466
#	97901
#	114072
#	129966
#	146135
#	160709
#	170871
#
# Disc length: 2474 seconds
#
# Revision: 1
# Processed by: cddbd v1.4PL0 Copyright (c) Steve Scherf et al.
# Submitted via: CDex 1.50Beta7
#
DISCID=9709a80c
DTITLE=Cathy Claret - sussurando
DYEAR=2003
DGENRE=Jazz
TTITLE0=Sussurando
TTITLE1=Somos libres
TTITLE2=La melancolia
TTITLE3=Sensaciones
TTITLE4=Bollore
TTITLE5=La joie de vivre
TTITLE6=Le, le, le, le
TTITLE7=Como si el sol
TTITLE8=Volando van
TTITLE9=Al compas de la esperanza
TTITLE10=La teresita mira a la luna
TTITLE11=Somos libres (con sorderita)
EXTD=YEAR: 2003
EXTT0=
EXTT1=
EXTT2=
EXTT3=
EXTT4=
EXTT5=
EXTT6=
EXTT7=
EXTT8=
EXTT9=
EXTT10=
EXTT11=
PLAYORDER=
